<?xml version="1.0" encoding="UTF-8"?>
<svg viewBox="0 0 878 878" xmlns="http://www.w3.org/2000/svg" role="img" aria-label="BANHALMI favicon">
  <rect width="878" height="878" fill="#FFFFFF"/>
  <g fill="#000000">
    <path d="m526 521-17 19 5 10 3 13v21l-5 19-12 20-17 16-32 16-33 11-46 8h-42l-8 3-4 5v4l5 5 10 3 32 1 30-3 27-6 24-9 32-19 36-34 11-14 11-21 4-16v-22l-6-18Zm-56-297-31 13-21 50-25 53-43 82-15 5-29 3-5 7 1 9 7 9 9 5 12 3 1 2-23 44-64 136-20 53-6 27 1 5 5-3 5-9 25-64 45-91 54-96 30 6 36 11 40 16 15 7 13-20v-2l-8-6-31-17-31-12-32-7-4-3-1-6 10-6 57-14 54-18 47-20 9-17v-4l-45 21-54 20-77 23-4-1 48-95Zm95-65-19 3-27 8-58 27-35 22-45 34-41 39-33 39-12 18-8 16-6 25 20-30 6-3 10-17 23-28 49-47 61-44 56-31 35-14 16-4 30-2 12 3 15 10 8 14 3 13-1 29-10 33-18 41-38 74-55 97-48 79-2 11 3 3 6 1 7-3 5-5 35-51 65-81 38-42 54-53 50-41 42-27 19-9 16-4 9 1 5 4 1 15-4 11-88 177-22 51-49 128-37 109-16 55-4 19v12l4 14 7 11 7 6 13 1 19-8 24-17 29-28 12-19-1-3-3 1-35 33-27 21-24 11h-6l-4-3-3-9 2-16-3-9 2-22 10-38 25-71 45-108 39-85 55-105 51-91 1-22-3-13-6-9-13-13-7-3-25 5-33 17-37 27-46 41-58 58-44 49-23 30-7 7h-2l-1-5 51-89 34-67 17-40 10-36-1-38-6-18-9-14-9-9-11-6-11-3Zm-70-32-14-1-9 3-10 6-9 9v3l4 1 4 4 2 8-4 24 32-15 7-26v-11ZM52 103l-2 9v16l11 28 13 17 19 19 32 26 10 4 1-8-3-5-20-16-15-15-9-12-9-16-7-22 1-16 10-23 10-14 13-13 19-14 17-9 27-10 31-7 47-5 112 3 79 9 67 16 34 12 37 17 18 10 39 28 25 23 15 20 8 19 4 22-1 20-4 18-7 18-14 24-10 13-31 29-5 21 21-14 21-17 21-22 20-32 11-34 2-21-1-15-7-27-14-26-27-29-47-35-35-19-54-21-61-15-54-7-70-4h-56l-80 10-34 8-31 10-43 21-17 12-11 11-10 15Z" fill-rule="evenodd"/>
  </g>
</svg>
